<svg width="156" height="18" viewBox="0 0 156 18" fill="none" xmlns="http://www.w3.org/2000/svg" class="logo" data-darkreader-inline-invert=""><path fill-rule="evenodd" clip-rule="evenodd" d="M149.889 16.1269H149.888L141.562 6.84901V6.84841L149.889 16.1269ZM150.818 16.1269V16.148H150.819V16.1269H150.818ZM155.764 16.148H155.765V16.1269V1.33203H155.764V16.148ZM150.819 1.33203H150.818V10.6099L142.492 1.33203H142.491L150.818 10.6105V10.6099L150.819 10.6105V1.33203ZM136.595 1.33203H136.594V16.148H136.595V16.1269V1.33203ZM141.561 16.148H141.562V6.84901L141.561 6.84841V16.148ZM141.156 5.7915V15.7433H136.999V1.73677H142.31L151.223 11.6674V1.73677H155.359V15.7433H151.223V15.7222H150.069L141.156 5.7915ZM136.303 16.1269H136.189V15.9363L136.303 16.1269Z" fill="#333333"></path><path fill-rule="evenodd" clip-rule="evenodd" d="M136.593 16.148V15.8247L136.786 16.148H136.593ZM130.532 16.1269L129.18 13.8865L129.181 13.8865L130.534 16.1269L130.532 16.1269ZM136.302 16.1269L136.304 16.1269L127.469 1.33203H127.468L136.302 16.1269ZM120.452 1.33203L111.617 16.1269L111.616 16.1269L120.451 1.33203H120.452ZM117.386 16.1269L117.387 16.1269L118.719 13.8865L118.717 13.8865L117.386 16.1269ZM111.139 16.148H111.132L111.139 16.1363V16.148ZM118.487 13.4818L117.156 15.7222H112.329L120.68 1.73677H127.238L135.589 15.7222H130.761L129.408 13.4818H118.487ZM123.96 4.32481L120.35 10.3601H127.545L123.96 4.32481ZM123.96 5.11641L126.833 9.95533L126.835 9.95533L123.96 5.11529L123.96 5.11641ZM123.96 5.11641L123.959 5.11529L121.063 9.95533L121.065 9.95533L123.96 5.11641Z" fill="#333333"></path><path fill-rule="evenodd" clip-rule="evenodd" d="M106.574 15.7419V1.73535H110.732V15.7419H106.574Z" fill="#333333"></path><path fill-rule="evenodd" clip-rule="evenodd" d="M92.9406 12.5145H104.29V15.7419H88.7832V1.73535H92.9406V12.5145Z" fill="#333333"></path><path fill-rule="evenodd" clip-rule="evenodd" d="M74.4204 12.8104H86.3832V15.763H70.2842V1.73535H86.3832V4.64574H74.4204V7.294H85.5589V10.2044H74.4204V12.8104Z" fill="#333333"></path><path fill-rule="evenodd" clip-rule="evenodd" d="M65.5496 7.97507L64.7472 8.43355L65.6283 8.71235C67.1461 9.19268 68.2201 10.5486 68.2201 12.1097C68.2201 14.0252 66.6202 15.6198 64.5781 15.7208H50.3457V1.73535H63.6905C65.7529 1.83695 67.3112 3.34387 67.3112 5.11388C67.3112 6.30144 66.6253 7.36037 65.5496 7.97507ZM61.6289 4.64574H54.5031V7.27286H61.6289C62 7.27286 62.3662 7.1775 62.6505 6.96523C62.9454 6.74497 63.1327 6.41072 63.1327 6.00157C63.1327 5.19722 62.4091 4.64574 61.6289 4.64574ZM62.5166 10.1832H54.5031V12.8104H62.5166C63.2968 12.8104 64.0204 12.2589 64.0204 11.4545C64.0204 11.0525 63.8303 10.7209 63.5409 10.5009C63.2591 10.2867 62.8934 10.1832 62.5166 10.1832Z" fill="#333333"></path><path fill-rule="evenodd" clip-rule="evenodd" d="M49.9441 16.1255V16.1164L49.9495 16.1255H49.9441ZM31.6631 13.4804L30.3315 15.7208H25.5049L33.8562 1.73535H40.4138L48.7651 15.7208H43.9365L42.5839 13.4804H31.6631ZM37.1362 4.3234L33.5256 10.3586H40.7205L37.1362 4.3234Z" fill="#333333"></path><path fill-rule="evenodd" clip-rule="evenodd" d="M6.76798 0.00195312L17.4087 18.002H24.2593L13.4928 0.00195312H6.76798ZM3.36589 16.9856L3.36432 16.983L3.36327 16.983L3.3638 16.9821L-0.000976562 11.2711L3.359 5.64798L6.76171 11.3192L6.76762 11.3093L13.0676 11.3093L9.67152 17.0137L3.36749 16.983L3.36589 16.9856Z" fill="#3638FF"></path><path fill-rule="evenodd" clip-rule="evenodd" d="M6.76798 0.00195312L17.4087 18.002H24.2593L13.4928 0.00195312H6.76798ZM3.36589 16.9856L3.36432 16.983L3.36327 16.983L3.3638 16.9821L-0.000976562 11.2711L3.359 5.64798L6.76171 11.3192L6.76762 11.3093L13.0676 11.3093L9.67152 17.0137L3.36749 16.983L3.36589 16.9856Z" fill="url(#paint0_linear_458_350)" fill-opacity="0.2"></path><defs><linearGradient id="paint0_linear_458_350" x1="1.17402" y1="18.152" x2="23.0924" y2="17.1618" gradientUnits="userSpaceOnUse"><stop stop-color="white" stop-opacity="0"></stop><stop offset="1" stop-color="white"></stop></linearGradient></defs></svg>