<svg width="100%" height="100%" viewBox="0 0 181 60" fill="none" xmlns="http://www.w3.org/2000/svg" class="store_btn_android"><rect x="0.5" width="180" height="60" rx="9" fill="white"></rect><path d="M27.2076 29.1925L12.6348 45.0089C12.6361 45.0117 12.6361 45.0159 12.6375 45.0187C13.0851 46.7361 14.618 48 16.4385 48C17.1666 48 17.8496 47.7984 18.4354 47.4457L18.482 47.4177L34.8848 37.739L27.2076 29.1925Z" fill="#EA4335"></path><path d="M41.9488 26.4993L41.9351 26.4895L34.8533 22.2918L26.875 29.552L34.882 37.7373L41.9255 33.5817C43.1601 32.8986 43.9991 31.5675 43.9991 30.0335C43.9991 28.5078 43.1724 27.1837 41.9488 26.4993Z" fill="#FBBC04"></path><path d="M12.6341 14.9899C12.5465 15.3202 12.5 15.6673 12.5 16.0256V43.9744C12.5 44.3327 12.5465 44.6799 12.6355 45.0088L27.7079 29.5969L12.6341 14.9899Z" fill="#4285F4"></path><path d="M27.3157 30L34.8574 22.2892L18.4738 12.5754C17.8784 12.2101 17.183 12.0001 16.4398 12.0001C14.6194 12.0001 13.0837 13.2668 12.6361 14.9856C12.6361 14.987 12.6348 14.9884 12.6348 14.9898L27.3157 30Z" fill="#34A853"></path><path d="M65.915 16.565C65.915 18.065 65.47 19.26 64.58 20.15C63.58 21.21 62.265 21.74 60.635 21.74C59.075 21.74 57.755 21.2 56.675 20.12C55.595 19.04 55.055 17.71 55.055 16.13C55.055 14.55 55.595 13.22 56.675 12.14C57.755 11.06 59.075 10.52 60.635 10.52C61.425 10.52 62.17 10.66 62.87 10.94C63.57 11.22 64.145 11.615 64.595 12.125L63.605 13.115C63.275 12.715 62.845 12.405 62.315 12.185C61.795 11.955 61.235 11.84 60.635 11.84C59.465 11.84 58.475 12.245 57.665 13.055C56.865 13.875 56.465 14.9 56.465 16.13C56.465 17.36 56.865 18.385 57.665 19.205C58.475 20.015 59.465 20.42 60.635 20.42C61.705 20.42 62.595 20.12 63.305 19.52C64.015 18.92 64.425 18.095 64.535 17.045H60.635V15.755H65.84C65.89 16.035 65.915 16.305 65.915 16.565ZM73.8617 10.76V12.08H68.9717V15.485H73.3817V16.775H68.9717V20.18H73.8617V21.5H67.5917V10.76H73.8617ZM79.3816 12.08V21.5H78.0016V12.08H75.0016V10.76H82.3816V12.08H79.3816ZM88.4981 21.5H87.1181V10.76H88.4981V21.5ZM94.323 12.08V21.5H92.943V12.08H89.943V10.76H97.323V12.08H94.323ZM112.282 16.13C112.282 17.72 111.752 19.05 110.692 20.12C109.622 21.2 108.312 21.74 106.762 21.74C105.202 21.74 103.892 21.2 102.832 20.12C101.772 19.05 101.242 17.72 101.242 16.13C101.242 14.54 101.772 13.21 102.832 12.14C103.892 11.06 105.202 10.52 106.762 10.52C108.322 10.52 109.632 11.065 110.692 12.155C111.752 13.225 112.282 14.55 112.282 16.13ZM102.652 16.13C102.652 17.37 103.042 18.395 103.822 19.205C104.612 20.015 105.592 20.42 106.762 20.42C107.932 20.42 108.907 20.015 109.687 19.205C110.477 18.405 110.872 17.38 110.872 16.13C110.872 14.88 110.477 13.855 109.687 13.055C108.907 12.245 107.932 11.84 106.762 11.84C105.592 11.84 104.612 12.245 103.822 13.055C103.042 13.865 102.652 14.89 102.652 16.13ZM115.29 21.5H113.91V10.76H115.59L120.81 19.115H120.87L120.81 17.045V10.76H122.19V21.5H120.75L115.29 12.74H115.23L115.29 14.81V21.5Z" fill="black"></path><path d="M140.777 41.1145H143.22V24.5972H140.777V41.1145ZM162.783 30.5469L159.982 37.7082H159.899L156.992 30.5469H154.36L158.719 40.5556L156.235 46.1234H158.782L165.5 30.5469H162.783ZM148.928 39.2383C148.126 39.2383 147.011 38.8353 147.011 37.8351C147.011 36.5614 148.4 36.0725 149.601 36.0725C150.674 36.0725 151.181 36.3064 151.833 36.6248C151.643 38.1548 150.338 39.2383 148.928 39.2383ZM149.222 30.1862C147.453 30.1862 145.62 30.9724 144.864 32.7151L147.032 33.6281C147.495 32.7151 148.358 32.4165 149.264 32.4165C150.528 32.4165 151.812 33.1815 151.833 34.5425V34.7116C151.391 34.4566 150.444 34.0747 149.285 34.0747C146.948 34.0747 144.568 35.3709 144.568 37.7928C144.568 40.0033 146.485 41.4276 148.632 41.4276C150.275 41.4276 151.181 40.6837 151.749 39.8117H151.833V41.0867H154.191V34.7539C154.191 31.822 152.023 30.1862 149.222 30.1862ZM134.123 32.5579H130.648V26.8962H134.123C135.95 26.8962 136.987 28.4223 136.987 29.7264C136.987 31.0067 135.95 32.5579 134.123 32.5579ZM134.06 24.5972H128.206V41.1145H130.648V34.8569H134.06C136.768 34.8569 139.43 32.8777 139.43 29.7264C139.43 26.5752 136.768 24.5972 134.06 24.5972ZM102.137 39.2409C100.45 39.2409 99.037 37.8153 99.037 35.8571C99.037 33.8779 100.45 32.4297 102.137 32.4297C103.804 32.4297 105.111 33.8779 105.111 35.8571C105.111 37.8153 103.804 39.2409 102.137 39.2409ZM104.943 31.4718H104.858C104.31 30.8125 103.256 30.2166 101.927 30.2166C99.1417 30.2166 96.5898 32.6847 96.5898 35.8571C96.5898 39.007 99.1417 41.4554 101.927 41.4554C103.256 41.4554 104.31 40.8595 104.858 40.1777H104.943V40.9876C104.943 43.1374 103.804 44.2869 101.969 44.2869C100.471 44.2869 99.5424 43.2008 99.1627 42.2851L97.0324 43.1796C97.6438 44.67 99.2687 46.5 101.969 46.5C104.837 46.5 107.263 44.7969 107.263 40.6467V30.5562H104.943V31.4718ZM108.951 41.1145H111.398V24.5959H108.951V41.1145ZM115.004 35.6655C114.941 33.4947 116.671 32.3875 117.915 32.3875C118.886 32.3875 119.709 32.8763 119.982 33.5792L115.004 35.6655ZM122.598 33.792C122.135 32.5368 120.721 30.2166 117.831 30.2166C114.962 30.2166 112.579 32.4932 112.579 35.836C112.579 38.9859 114.941 41.4554 118.105 41.4554C120.658 41.4554 122.135 39.8804 122.746 38.9648L120.848 37.6871C120.215 38.6239 119.35 39.2409 118.105 39.2409C116.861 39.2409 115.974 38.6662 115.405 37.5391L122.851 34.4301L122.598 33.792ZM63.2751 31.9409V34.3244H68.9275C68.7586 35.6655 68.3161 36.6446 67.6418 37.3251C66.8182 38.1561 65.5311 39.0718 63.2751 39.0718C59.7936 39.0718 57.0728 36.2403 57.0728 32.7283C57.0728 29.2151 59.7936 26.3849 63.2751 26.3849C65.1527 26.3849 66.5236 27.1301 67.5357 28.088L69.2025 26.406C67.7884 25.0438 65.9121 24 63.2751 24C58.5079 24 54.5 27.9176 54.5 32.7283C54.5 37.5391 58.5079 41.4554 63.2751 41.4554C65.848 41.4554 67.7884 40.6031 69.3072 39.007C70.8693 37.4321 71.3537 35.2189 71.3537 33.4299C71.3537 32.8763 71.3118 32.3663 71.2267 31.9409H63.2751ZM77.7812 39.2409C76.0935 39.2409 74.6375 37.8364 74.6375 35.836C74.6375 33.8131 76.0935 32.4297 77.7812 32.4297C79.4677 32.4297 80.9236 33.8131 80.9236 35.836C80.9236 37.8364 79.4677 39.2409 77.7812 39.2409ZM77.7812 30.2166C74.7004 30.2166 72.1904 32.579 72.1904 35.836C72.1904 39.0718 74.7004 41.4554 77.7812 41.4554C80.8608 41.4554 83.3708 39.0718 83.3708 35.836C83.3708 32.579 80.8608 30.2166 77.7812 30.2166ZM89.9751 39.2409C88.2873 39.2409 86.8314 37.8364 86.8314 35.836C86.8314 33.8131 88.2873 32.4297 89.9751 32.4297C91.6628 32.4297 93.1175 33.8131 93.1175 35.836C93.1175 37.8364 91.6628 39.2409 89.9751 39.2409ZM89.9751 30.2166C86.8955 30.2166 84.3855 32.579 84.3855 35.836C84.3855 39.0718 86.8955 41.4554 89.9751 41.4554C93.0546 41.4554 95.5646 39.0718 95.5646 35.836C95.5646 32.579 93.0546 30.2166 89.9751 30.2166Z" fill="black"></path></svg>
