<svg width="100%" height="100%" viewBox="0 0 181 60" fill="none" xmlns="http://www.w3.org/2000/svg" class="store_btn_ios"><rect x="0.5" width="180" height="60" rx="9" fill="white"></rect><path d="M37.5568 31.1445C37.575 29.7646 37.9504 28.4117 38.6481 27.2115C39.3458 26.0114 40.3431 25.003 41.5472 24.2803C40.7823 23.2137 39.7731 22.336 38.5999 21.7168C37.4267 21.0976 36.1218 20.754 34.7888 20.7132C31.9453 20.4218 29.1887 22.3744 27.7396 22.3744C26.2626 22.3744 24.0316 20.7422 21.6292 20.7904C20.0753 20.8394 18.5609 21.2806 17.2335 22.0709C15.9062 22.8613 14.8111 23.9738 14.0551 25.3001C10.7803 30.8357 13.223 38.9712 16.3601 43.4458C17.9296 45.6368 19.764 48.0843 22.1642 47.9975C24.5129 47.9024 25.3902 46.5353 28.2253 46.5353C31.0341 46.5353 31.8571 47.9975 34.3061 47.9423C36.8264 47.9024 38.4143 45.7415 39.9288 43.5297C41.0565 41.9685 41.9243 40.243 42.5 38.4172C41.0358 37.8126 39.7862 36.8005 38.9072 35.5072C38.0281 34.2139 37.5585 32.6966 37.5568 31.1445Z" fill="black"></path><path d="M32.9311 17.7707C34.3053 16.1601 34.9823 14.09 34.8183 12C32.7189 12.2153 30.7796 13.1949 29.3868 14.7437C28.7059 15.5003 28.1843 16.3805 27.852 17.334C27.5197 18.2875 27.3832 19.2956 27.4502 20.3007C28.5003 20.3113 29.5391 20.089 30.4885 19.6508C31.4379 19.2126 32.273 18.5697 32.9311 17.7707Z" fill="black"></path><path d="M55.6865 12.5022H58.7913C61.4741 12.5022 62.7793 14.0974 62.7793 16.9912C62.7793 19.885 61.4609 21.5 58.7913 21.5H55.6865V12.5022ZM57.1829 13.7612V20.241H58.6265C60.4062 20.241 61.2434 19.1665 61.2434 17.011C61.2434 14.8423 60.3997 13.7612 58.6265 13.7612H57.1829ZM67.5122 14.4138C69.3315 14.4138 70.6038 15.5938 70.6038 17.5515V18.4546C70.6038 20.4783 69.3315 21.6187 67.5122 21.6187C65.6665 21.6187 64.4075 20.4915 64.4075 18.4612V17.5581C64.4075 15.6531 65.6863 14.4138 67.5122 14.4138ZM67.5188 15.5938C66.4773 15.5938 65.884 16.4639 65.884 17.6306V18.4084C65.884 19.5752 66.4377 20.4387 67.5188 20.4387C68.5867 20.4387 69.1338 19.5818 69.1338 18.4084V17.6306C69.1338 16.4639 68.5603 15.5938 67.5188 15.5938ZM81.3484 14.5325L79.5159 21.5H78.0261L76.5693 16.3584H76.5298L75.0994 21.5H73.603L71.6914 14.5325H73.2668L74.3875 19.8455H74.4534L75.8574 14.5325H77.2351L78.6787 19.8455H78.7446L79.885 14.5325H81.3484ZM82.7986 21.5V14.5325H84.2356V15.7849H84.3081C84.4861 15.2378 84.9937 14.427 86.4043 14.427C87.8083 14.427 88.751 15.2048 88.751 16.7935V21.5H87.2876V17.2219C87.2876 16.1606 86.7339 15.6729 85.9099 15.6729C84.8289 15.6729 84.262 16.5034 84.262 17.6306V21.5H82.7986ZM90.9658 21.5V12.0276H92.4292V21.5H90.9658ZM97.4521 14.4138C99.2715 14.4138 100.544 15.5938 100.544 17.5515V18.4546C100.544 20.4783 99.2715 21.6187 97.4521 21.6187C95.6064 21.6187 94.3474 20.4915 94.3474 18.4612V17.5581C94.3474 15.6531 95.6262 14.4138 97.4521 14.4138ZM97.4587 15.5938C96.4172 15.5938 95.824 16.4639 95.824 17.6306V18.4084C95.824 19.5752 96.3777 20.4387 97.4587 20.4387C98.5266 20.4387 99.0737 19.5818 99.0737 18.4084V17.6306C99.0737 16.4639 98.5002 15.5938 97.4587 15.5938ZM104.334 21.6055C102.983 21.6055 102.053 20.7749 102.053 19.4763C102.053 18.2437 102.91 17.4131 104.519 17.4131H106.279V16.7605C106.279 15.9629 105.771 15.5872 104.967 15.5872C104.176 15.5872 103.82 15.9167 103.708 16.3782H102.317C102.403 15.2114 103.279 14.427 105.013 14.427C106.503 14.427 107.735 15.0466 107.735 16.7803V21.5H106.344V20.5969H106.279C105.969 21.1309 105.362 21.6055 104.334 21.6055ZM104.789 20.4717C105.619 20.4717 106.279 19.9048 106.279 19.1467V18.3953H104.749C103.899 18.3953 103.523 18.8237 103.523 19.4038C103.523 20.1289 104.13 20.4717 104.789 20.4717ZM112.244 14.4402C113.226 14.4402 113.978 14.8752 114.248 15.5806H114.321V12.0276H115.784V21.5H114.36V20.386H114.288C114.077 21.0913 113.24 21.5923 112.224 21.5923C110.623 21.5923 109.581 20.4519 109.581 18.6128V17.4197C109.581 15.5806 110.642 14.4402 112.244 14.4402ZM112.653 15.6399C111.677 15.6399 111.071 16.365 111.071 17.6306V18.3953C111.071 19.6675 111.684 20.3926 112.686 20.3926C113.675 20.3926 114.321 19.6741 114.321 18.4875V17.4329C114.321 16.3584 113.615 15.6399 112.653 15.6399ZM123.819 14.4138C125.639 14.4138 126.911 15.5938 126.911 17.5515V18.4546C126.911 20.4783 125.639 21.6187 123.819 21.6187C121.974 21.6187 120.715 20.4915 120.715 18.4612V17.5581C120.715 15.6531 121.993 14.4138 123.819 14.4138ZM123.826 15.5938C122.784 15.5938 122.191 16.4639 122.191 17.6306V18.4084C122.191 19.5752 122.745 20.4387 123.826 20.4387C124.894 20.4387 125.441 19.5818 125.441 18.4084V17.6306C125.441 16.4639 124.867 15.5938 123.826 15.5938ZM128.796 21.5V14.5325H130.233V15.7849H130.306C130.484 15.2378 130.991 14.427 132.402 14.427C133.806 14.427 134.749 15.2048 134.749 16.7935V21.5H133.285V17.2219C133.285 16.1606 132.731 15.6729 131.907 15.6729C130.826 15.6729 130.26 16.5034 130.26 17.6306V21.5H128.796ZM140.411 14.5786V12.8384H141.841V14.5786H143.404V15.7256H141.841V19.4236C141.841 20.1816 142.125 20.3926 142.909 20.3926C143.107 20.3926 143.371 20.3794 143.483 20.3662V21.4868C143.364 21.5066 142.876 21.5461 142.547 21.5461C140.853 21.5461 140.391 20.9397 140.391 19.5422V15.7256H139.33V14.5786H140.411ZM145.249 21.5V12.0276H146.706V15.7849H146.779C146.93 15.2905 147.497 14.427 148.895 14.427C150.252 14.427 151.221 15.2114 151.221 16.8V21.5H149.765V17.2285C149.765 16.1672 149.178 15.6729 148.347 15.6729C147.299 15.6729 146.706 16.4968 146.706 17.6306V21.5H145.249ZM156.132 21.6187C154.234 21.6187 153.054 20.4519 153.054 18.4875V17.5449C153.054 15.5674 154.346 14.4138 156.047 14.4138C157.793 14.4138 159.026 15.6267 159.026 17.5449V18.3623H154.504V18.7051C154.504 19.707 155.097 20.4453 156.126 20.4453C156.89 20.4453 157.418 20.0828 157.517 19.6477H158.947C158.861 20.4519 158.011 21.6187 156.132 21.6187ZM154.504 17.4065H157.596V17.3142C157.596 16.2661 156.983 15.5674 156.053 15.5674C155.124 15.5674 154.504 16.2661 154.504 17.3142V17.4065Z" fill="black"></path><path d="M57.8091 46.5H54.7637L60.96 28.5044H64.3086L70.4917 46.5H67.3276L65.7324 41.5166H59.4175L57.8091 46.5ZM62.6475 31.6157H62.5288L60.0898 39.2227H65.0601L62.6475 31.6157ZM78.8966 46.6978C77.0904 46.6978 75.7193 45.8408 74.981 44.562H74.8756V51.1274H71.9488V32.5649H74.7965V34.6084H74.9019C75.6666 33.2769 77.0904 32.3804 78.9625 32.3804C82.087 32.3804 84.315 34.7402 84.315 38.9062V40.1455C84.315 44.2852 82.1134 46.6978 78.8966 46.6978ZM78.2242 44.2852C80.0831 44.2852 81.3487 42.7954 81.3487 39.9873V39.0117C81.3487 36.3091 80.1622 34.7666 78.1715 34.7666C76.128 34.7666 74.8492 36.4277 74.8492 38.9985V39.9873C74.8492 42.624 76.1412 44.2852 78.2242 44.2852ZM93.7746 46.6978C91.9684 46.6978 90.5973 45.8408 89.859 44.562H89.7536V51.1274H86.8268V32.5649H89.6745V34.6084H89.7799C90.5446 33.2769 91.9684 32.3804 93.8405 32.3804C96.965 32.3804 99.193 34.7402 99.193 38.9062V40.1455C99.193 44.2852 96.9914 46.6978 93.7746 46.6978ZM93.1022 44.2852C94.9611 44.2852 96.2267 42.7954 96.2267 39.9873V39.0117C96.2267 36.3091 95.0402 34.7666 93.0495 34.7666C91.006 34.7666 89.7272 36.4277 89.7272 38.9985V39.9873C89.7272 42.624 91.0192 44.2852 93.1022 44.2852ZM105.258 41.5034H108.185C108.317 43.0591 109.688 44.3906 112.232 44.3906C114.566 44.3906 115.95 43.2964 115.95 41.5957C115.95 40.2246 115.027 39.4863 113.102 39.0249L110.149 38.2866C107.829 37.7461 105.746 36.3618 105.746 33.4351C105.746 29.9941 108.752 28.1089 112.245 28.1089C115.739 28.1089 118.653 29.9941 118.719 33.356H115.845C115.713 31.8267 114.539 30.561 112.206 30.561C110.149 30.561 108.752 31.5366 108.752 33.2109C108.752 34.3843 109.569 35.228 111.243 35.6104L114.183 36.3354C116.886 36.9946 118.943 38.2734 118.943 41.332C118.943 44.8652 116.082 46.856 112.008 46.856C106.998 46.856 105.324 43.9292 105.258 41.5034ZM122.509 32.5649V29.1768H125.383V32.5649H128.099V34.9116H125.383V42.3472C125.383 43.8633 125.95 44.2852 127.519 44.2852C127.769 44.2852 128.007 44.2852 128.178 44.2588V46.5C127.941 46.5396 127.387 46.5923 126.794 46.5923C123.406 46.5923 122.47 45.3794 122.47 42.5845V34.9116H120.545V32.5649H122.509ZM136.003 32.3276C140.011 32.3276 142.186 35.1489 142.186 38.9458V40.0664C142.186 43.9951 140.024 46.7373 136.003 46.7373C131.982 46.7373 129.793 43.9951 129.793 40.0664V38.9458C129.793 35.1621 131.995 32.3276 136.003 32.3276ZM136.003 34.6743C133.828 34.6743 132.747 36.4541 132.747 38.9854V40.0532C132.747 42.5449 133.814 44.3774 136.003 44.3774C138.191 44.3774 139.246 42.5581 139.246 40.0532V38.9854C139.246 36.4409 138.178 34.6743 136.003 34.6743ZM144.658 46.5V32.5649H147.585V34.3975H147.69C148.046 33.5273 149.088 32.3672 151.026 32.3672C151.408 32.3672 151.738 32.3936 152.015 32.4463V35.0303C151.764 34.9644 151.25 34.9248 150.762 34.9248C148.416 34.9248 147.625 36.375 147.625 38.2471V46.5H144.658ZM159.114 46.7373C155.383 46.7373 153.01 44.272 153.01 40.1455V38.7349C153.01 34.8457 155.331 32.3276 158.996 32.3276C162.714 32.3276 164.955 34.938 164.955 38.8667V40.1982H155.898V40.5278C155.898 42.8745 157.163 44.4302 159.154 44.4302C160.644 44.4302 161.659 43.6919 162.015 42.4922H164.797C164.375 44.7466 162.555 46.7373 159.114 46.7373ZM155.898 38.1548H162.094V38.1284C162.094 36.1509 160.868 34.5952 159.009 34.5952C157.124 34.5952 155.898 36.1509 155.898 38.1284V38.1548Z" fill="black"></path></svg>
